<?xml version="1.0" standalone="no"?>
<!DOCTYPE svg PUBLIC "-//W3C//DTD SVG 20010904//EN"
 "http://www.w3.org/TR/2001/REC-SVG-20010904/DTD/svg10.dtd">
<svg version="1.0" xmlns="http://www.w3.org/2000/svg"
 width="928.000000pt" height="928.000000pt" viewBox="0 0 928.000000 928.000000"
 preserveAspectRatio="xMidYMid meet">
<metadata>
Created by potrace 1.14, written by Peter Selinger 2001-2017
</metadata>
<g transform="translate(0.000000,928.000000) scale(0.100000,-0.100000)"
fill="#000000" stroke="none">
<path d="M6709 9116 c-2 -2 -38 -7 -79 -10 -41 -4 -93 -11 -115 -16 -22 -5
-58 -11 -80 -15 -22 -3 -58 -10 -80 -16 -22 -6 -48 -13 -57 -14 -10 -2 -22 -6
-26 -9 -5 -3 -24 -8 -43 -11 -18 -3 -36 -9 -39 -13 -3 -4 -14 -9 -25 -10 -77
-14 -353 -145 -472 -224 -23 -15 -44 -28 -48 -28 -3 0 -12 -6 -19 -12 -8 -7
-24 -20 -36 -28 -30 -20 -112 -82 -126 -95 -7 -5 -38 -32 -69 -60 -96 -84
-167 -158 -267 -280 -89 -108 -198 -283 -271 -435 -54 -111 -140 -351 -150
-417 -3 -17 -8 -36 -11 -41 -2 -4 -8 -31 -12 -58 -3 -27 -8 -52 -10 -55 -4 -7
-14 -82 -19 -140 -1 -20 -4 -41 -7 -45 -2 -5 -4 -26 -3 -46 0 -21 -3 -38 -8
-38 -4 0 -5 -5 -1 -12 10 -17 11 -58 2 -64 -5 -3 -6 -10 -2 -15 10 -17 12 -59
2 -65 -4 -3 -5 -10 -2 -16 3 -5 8 -48 10 -94 2 -46 6 -96 9 -111 2 -16 7 -51
11 -80 5 -42 25 -139 59 -277 2 -11 16 -55 31 -98 14 -42 25 -81 25 -85 0 -5
6 -15 13 -23 6 -8 18 -32 25 -53 24 -73 122 -262 149 -289 6 -6 12 -16 12 -20
0 -8 89 -139 117 -172 10 -12 35 -44 56 -71 38 -51 223 -237 288 -291 92 -76
243 -184 256 -184 3 0 14 -6 22 -14 9 -7 41 -27 72 -44 32 -16 70 -38 85 -49
15 -10 28 -16 29 -14 0 2 20 -5 45 -17 140 -64 393 -148 411 -136 5 3 9 1 9
-3 0 -5 8 -9 18 -10 16 -1 27 -4 87 -16 11 -3 43 -8 70 -11 28 -4 63 -9 79
-12 25 -4 168 -15 201 -15 111 -1 323 14 395 27 14 3 36 7 50 9 85 13 206 44
315 79 97 33 257 97 275 111 16 13 54 28 56 23 1 -2 10 4 20 13 11 9 39 27 64
39 25 13 59 33 76 46 17 13 34 24 38 24 7 0 23 12 57 42 10 10 22 18 25 18 14
0 188 146 263 221 113 114 300 348 301 377 0 6 3 12 8 12 4 0 18 21 32 48 13
26 27 49 31 52 29 23 190 408 204 492 3 17 9 36 13 42 4 6 7 19 8 29 1 9 2 18
4 20 3 3 8 28 15 72 3 22 10 55 15 73 5 18 7 42 5 52 -2 11 -1 20 3 20 4 0 8
15 9 33 4 105 11 188 16 193 3 4 2 14 -3 24 -5 10 -7 20 -4 23 6 6 6 69 1 110
-2 15 0 27 5 27 5 0 6 6 1 13 -4 6 -8 26 -9 42 -2 45 -20 191 -28 230 -2 11
-7 31 -10 45 -3 14 -8 36 -10 50 -20 110 -113 380 -166 482 -63 118 -97 180
-121 215 -16 23 -29 44 -29 47 0 3 -28 42 -62 87 -35 45 -67 88 -73 96 -11 17
-71 83 -148 162 -72 74 -232 210 -276 235 -9 5 -18 12 -21 16 -7 10 -138 93
-190 121 -25 13 -47 27 -48 32 -2 4 -7 5 -12 2 -4 -3 -13 2 -20 10 -7 8 -16
15 -21 15 -5 0 -32 11 -61 25 -90 41 -261 105 -324 120 -10 3 -64 16 -119 29
-55 14 -102 25 -105 25 -17 1 -118 14 -135 18 -23 6 -421 13 -426 9z"/>
<path d="M2378 4645 c-3 -3 -52 -8 -109 -10 -57 -3 -113 -6 -124 -9 -11 -2
-42 -7 -70 -10 -71 -9 -150 -25 -229 -47 -37 -10 -71 -18 -75 -17 -3 1 -13 -2
-21 -5 -49 -20 -207 -78 -221 -81 -29 -7 -310 -155 -320 -169 -6 -9 -39 -29
-69 -43 -8 -4 -17 -10 -20 -13 -3 -4 -32 -26 -65 -50 -33 -24 -67 -51 -77 -60
-9 -9 -40 -36 -68 -61 -90 -77 -163 -154 -262 -275 -72 -88 -258 -379 -258
-405 0 -5 -8 -24 -18 -42 -10 -18 -26 -53 -36 -78 -10 -25 -23 -56 -29 -70 -6
-14 -11 -27 -12 -30 0 -3 -9 -30 -20 -60 -10 -30 -20 -59 -21 -65 -2 -5 -16
-64 -32 -130 -17 -66 -33 -142 -36 -170 -16 -127 -19 -165 -20 -227 -1 -38 -5
-68 -9 -68 -5 0 -5 -4 -2 -10 10 -16 11 -90 2 -90 -4 0 -5 -5 -1 -11 3 -6 8
-43 10 -82 5 -81 12 -162 14 -162 1 0 3 -13 5 -30 12 -134 95 -415 170 -580
14 -30 26 -58 27 -62 0 -5 12 -25 24 -45 13 -21 24 -42 24 -48 0 -6 5 -16 10
-23 21 -24 90 -138 90 -147 0 -6 3 -10 8 -10 4 0 18 -18 32 -40 14 -22 28 -40
32 -40 5 0 8 -5 8 -11 0 -34 281 -322 415 -426 96 -74 229 -163 245 -163 6 0
10 -3 10 -7 0 -5 20 -17 45 -28 25 -11 45 -23 45 -27 0 -5 3 -7 8 -6 4 1 21
-5 38 -15 63 -33 276 -117 285 -111 5 3 9 1 9 -4 0 -5 6 -9 13 -10 6 -1 64
-15 127 -32 63 -17 133 -33 155 -36 22 -2 54 -7 70 -9 108 -16 170 -20 330
-20 161 0 206 3 335 20 52 6 178 34 234 50 27 8 52 12 57 9 5 -3 9 0 9 6 0 7
7 10 15 6 8 -3 20 0 27 7 7 7 22 14 33 15 90 16 500 218 513 253 2 5 8 9 14 9
5 0 20 8 33 18 12 9 33 24 45 32 13 8 33 24 46 35 13 11 40 34 61 50 98 79
218 199 305 306 71 87 148 195 148 208 0 6 3 11 8 11 4 0 18 21 32 48 13 26
27 49 31 52 12 9 130 261 132 280 1 11 6 20 11 20 5 0 6 3 3 7 -4 3 -3 11 2
17 8 11 50 132 56 164 2 9 4 17 5 17 2 0 10 36 12 58 1 9 5 17 8 17 3 0 6 8 6
18 1 16 3 29 24 137 12 65 22 155 25 228 1 31 5 60 8 63 4 4 2 15 -3 25 -6 11
-6 20 -1 24 6 3 6 17 1 35 -5 19 -5 30 1 30 6 0 7 5 4 11 -4 6 -9 49 -11 95
-2 47 -6 97 -9 112 -2 15 -7 50 -11 79 -5 42 -29 154 -59 276 -8 34 -27 92
-36 109 -5 10 -9 24 -9 31 0 8 -6 27 -14 43 -8 16 -31 70 -51 119 -21 50 -42
95 -46 101 -5 6 -23 37 -40 70 -18 32 -45 78 -60 101 -16 23 -29 44 -29 47 0
3 -28 42 -62 87 -35 45 -67 88 -73 96 -21 31 -166 183 -235 247 -57 52 -256
206 -266 206 -3 0 -24 13 -47 29 -35 24 -97 58 -215 121 -35 18 -110 48 -197
80 -49 18 -99 36 -110 40 -11 5 -31 11 -45 13 -14 3 -70 17 -125 30 -55 14
-127 28 -160 32 -33 4 -71 9 -85 11 -14 2 -76 6 -139 9 -63 3 -117 8 -121 10
-4 3 -9 2 -12 0z"/>
</g>
</svg>
